<svg width="20" height="20" viewBox="0 0 20 20" fill="none" xmlns="http://www.w3.org/2000/svg">
<path d="M8.33301 10L11.6663 13.3333M11.6663 10L8.33301 13.3333M3.33301 5H16.6663M13.333 5L13.1075 4.32339C12.8889 3.66771 12.7796 3.33987 12.5769 3.09748C12.3979 2.88345 12.1681 2.71777 11.9084 2.61565C11.6144 2.5 11.2688 2.5 10.5776 2.5H9.4217C8.73055 2.5 8.38497 2.5 8.09093 2.61565C7.83127 2.71777 7.60141 2.88345 7.42241 3.09748C7.21972 3.33987 7.11044 3.66771 6.89188 4.32339L6.66634 5M14.9997 5V13.5C14.9997 14.9001 14.9997 15.6002 14.7272 16.135C14.4875 16.6054 14.1051 16.9878 13.6347 17.2275C13.0999 17.5 12.3998 17.5 10.9997 17.5H8.99967C7.59954 17.5 6.89948 17.5 6.3647 17.2275C5.89429 16.9878 5.51184 16.6054 5.27216 16.135C4.99967 15.6002 4.99967 14.9001 4.99967 13.5V5" stroke="#F5522E" stroke-linecap="round" stroke-linejoin="round"/>
</svg>
