<svg width="36" height="24" viewBox="0 0 36 24" fill="none" xmlns="http://www.w3.org/2000/svg">
<path d="M0.5 23.8333V0.5H3V16.3333H16.75V3.83333H29.6667C31.2708 3.83333 32.644 4.40458 33.7863 5.54708C34.9287 6.68931 35.5 8.0625 35.5 9.66667V23.8333H33V18.8333H3V23.8333H0.5ZM9.66458 13.9296C8.48014 13.9296 7.47389 13.5149 6.64583 12.6854C5.81778 11.8563 5.40375 10.8493 5.40375 9.66458C5.40375 8.48014 5.81847 7.47389 6.64792 6.64583C7.47708 5.81778 8.48403 5.40375 9.66875 5.40375C10.8532 5.40375 11.8594 5.81847 12.6875 6.64792C13.5156 7.47708 13.9296 8.48403 13.9296 9.66875C13.9296 10.8532 13.5149 11.8594 12.6854 12.6875C11.8563 13.5156 10.8493 13.9296 9.66458 13.9296ZM19.25 16.3333H33V9.66667C33 8.75 32.6736 7.96528 32.0208 7.3125C31.3681 6.65972 30.5833 6.33333 29.6667 6.33333H19.25V16.3333ZM9.66667 11.4296C10.1603 11.4296 10.5775 11.2592 10.9183 10.9183C11.2592 10.5775 11.4296 10.1603 11.4296 9.66667C11.4296 9.17306 11.2592 8.75583 10.9183 8.415C10.5775 8.07417 10.1603 7.90375 9.66667 7.90375C9.17306 7.90375 8.75583 8.07417 8.415 8.415C8.07417 8.75583 7.90375 9.17306 7.90375 9.66667C7.90375 10.1603 8.07417 10.5775 8.415 10.9183C8.75583 11.2592 9.17306 11.4296 9.66667 11.4296Z" fill="#1C262C"/>
</svg>
