<svg width="32" height="30" viewBox="0 0 32 30" fill="none" xmlns="http://www.w3.org/2000/svg">
<path d="M3.17942 29.1667C2.33748 29.1667 1.62484 28.875 1.0415 28.2917C0.458171 27.7083 0.166504 26.9957 0.166504 26.1537V8.84625C0.166504 8.0043 0.458171 7.29167 1.0415 6.70833C1.62484 6.125 2.33748 5.83333 3.17942 5.83333H10.1665V3.01292C10.1665 2.17097 10.4582 1.45833 11.0415 0.875C11.6248 0.291667 12.3375 0 13.1794 0H18.8203C19.6622 0 20.3748 0.291667 20.9582 0.875C21.5415 1.45833 21.8332 2.17097 21.8332 3.01292V5.83333H28.8203C29.6622 5.83333 30.3748 6.125 30.9582 6.70833C31.5415 7.29167 31.8332 8.0043 31.8332 8.84625V26.1537C31.8332 26.9957 31.5415 27.7083 30.9582 28.2917C30.3748 28.875 29.6622 29.1667 28.8203 29.1667H3.17942ZM3.17942 26.6667H28.8203C28.9486 26.6667 29.0661 26.6132 29.1728 26.5063C29.2797 26.3996 29.3332 26.2821 29.3332 26.1537V8.84625C29.3332 8.71792 29.2797 8.60042 29.1728 8.49375C29.0661 8.3868 28.9486 8.33333 28.8203 8.33333H3.17942C3.05109 8.33333 2.93359 8.3868 2.82692 8.49375C2.71998 8.60042 2.6665 8.71792 2.6665 8.84625V26.1537C2.6665 26.2821 2.71998 26.3996 2.82692 26.5063C2.93359 26.6132 3.05109 26.6667 3.17942 26.6667ZM12.6665 5.83333H19.3332V3.01292C19.3332 2.88458 19.2797 2.76708 19.1728 2.66042C19.0661 2.55347 18.9486 2.5 18.8203 2.5H13.1794C13.0511 2.5 12.9336 2.55347 12.8269 2.66042C12.72 2.76708 12.6665 2.88458 12.6665 3.01292V5.83333Z" fill="#1C262C"/>
</svg>
