<svg width="28" height="24" viewBox="0 0 28 24" fill="none" xmlns="http://www.w3.org/2000/svg">
<path d="M13.9759 23.2066C12.968 22.463 11.8847 21.8885 10.7259 21.4831C9.5674 21.0777 8.36708 20.875 7.125 20.875C6.36229 20.875 5.61312 20.9595 4.8775 21.1284C4.14188 21.2976 3.43271 21.5465 2.75 21.875C2.30458 22.08 1.88073 22.0495 1.47844 21.7834C1.07615 21.5176 0.875 21.141 0.875 20.6538V7.10594C0.875 6.83656 0.946354 6.58771 1.08906 6.35938C1.23156 6.13104 1.42948 5.96479 1.68281 5.86062C2.52885 5.44875 3.41062 5.1399 4.32812 4.93406C5.24563 4.72802 6.17792 4.625 7.125 4.625C8.34125 4.625 9.52552 4.79729 10.6778 5.14187C11.8301 5.48646 12.9375 5.97125 14 6.59625V20.9519C15.0546 20.2852 16.1672 19.7932 17.3378 19.4759C18.5084 19.1586 19.6875 19 20.875 19C21.5929 19 22.2711 19.0505 22.9097 19.1516C23.5484 19.2524 24.2083 19.4118 24.8894 19.6297C24.9775 19.6539 25.0597 19.6559 25.1359 19.6359C25.212 19.6157 25.25 19.5496 25.25 19.4375V5.39906C25.4662 5.46323 25.6774 5.53458 25.8834 5.61312C26.0893 5.69167 26.29 5.79021 26.4856 5.90875C26.6987 6.01292 26.8585 6.1651 26.965 6.36531C27.0717 6.56573 27.125 6.78052 27.125 7.00969V20.6297C27.125 21.117 26.9178 21.4916 26.5034 21.7534C26.0893 22.0155 25.6474 22.048 25.1778 21.8509C24.5032 21.5303 23.8042 21.2875 23.0806 21.1225C22.3571 20.9575 21.6219 20.875 20.875 20.875C19.625 20.875 18.4127 21.0717 17.2381 21.465C16.0633 21.8585 14.9759 22.4391 13.9759 23.2066ZM16.5 17.75V6.5L22.75 0.25V12.125L16.5 17.75ZM12.125 20.0456V7.73094C11.3415 7.34302 10.5298 7.04083 9.69 6.82438C8.85021 6.60813 7.99521 6.5 7.125 6.5C6.35417 6.5 5.62219 6.57094 4.92906 6.71281C4.23594 6.85469 3.58573 7.05135 2.97844 7.30281C2.91427 7.32698 2.86021 7.36104 2.81625 7.405C2.77208 7.44917 2.75 7.50323 2.75 7.56719V19.4806C2.75 19.5929 2.78802 19.6591 2.86406 19.6791C2.94031 19.6991 3.0225 19.693 3.11062 19.6609C3.7275 19.4382 4.36333 19.2724 5.01813 19.1634C5.67271 19.0545 6.375 19 7.125 19C8.05937 19 8.95198 19.0966 9.80281 19.2897C10.6539 19.4828 11.4279 19.7348 12.125 20.0456Z" fill="#1F1F1F"/>
</svg>
