<svg width="26" height="22" viewBox="0 0 26 22" fill="none" xmlns="http://www.w3.org/2000/svg">
<path d="M18.1295 13.8847L22.6751 9.97844L25.4517 10.2188L20.3601 14.6275L21.8651 21.2284L19.507 19.7956L18.1295 13.8847ZM15.4686 5.63719L14.2042 2.67063L15.2689 0.0987549L17.6992 5.84626L15.4686 5.63719ZM7.1873 17.0313L11.1248 14.6563L15.0623 17.0625L14.0311 12.5625L17.4998 9.56251L12.9373 9.15626L11.1248 4.90626L9.3123 9.12501L4.7498 9.53126L8.21855 12.5625L7.1873 17.0313ZM4.34355 20.9519L6.13449 13.2403L0.151367 8.05532L8.04543 7.37032L11.1248 0.0987549L14.2042 7.37032L22.0982 8.05532L16.1151 13.2403L17.9061 20.9519L11.1248 16.8606L4.34355 20.9519Z" fill="#1F1F1F"/>
</svg>
