<svg width="21" height="21" viewBox="0 0 21 21" fill="none" xmlns="http://www.w3.org/2000/svg">
<path d="M18.4537 14.623L17.3499 13.55L17.9999 12.9V7.09999L13.8999 2.99999H8.09991L7.44991 3.64999L6.39616 2.56549L7.46141 1.49999H14.5429L19.4999 6.46374V13.5077L18.4537 14.623ZM11.7499 7.94999V5.19224H10.2499V6.44999L11.7499 7.94999ZM19.4614 20.5692L15.9499 17.0577L14.5384 18.5H7.45691L2.49991 13.5077V6.46149L3.91141 5.04999L0.430664 1.53849L1.48466 0.484741L20.5152 19.5152L19.4614 20.5692ZM8.09991 17H13.8999L14.8962 16.0037L4.99616 6.10374L3.99991 7.09999V12.9L8.09991 17ZM10.9999 14.7115C10.7711 14.7115 10.5792 14.6341 10.4244 14.4792C10.2696 14.3244 10.1922 14.1326 10.1922 13.9037C10.1922 13.6749 10.2696 13.4831 10.4244 13.3282C10.5792 13.1736 10.7711 13.0962 10.9999 13.0962C11.2287 13.0962 11.4206 13.1736 11.5754 13.3282C11.7302 13.4831 11.8077 13.6749 11.8077 13.9037C11.8077 14.1326 11.7302 14.3244 11.5754 14.4792C11.4206 14.6341 11.2287 14.7115 10.9999 14.7115Z" fill="#FF784E"/>
</svg>
