<svg width="22" height="22" viewBox="0 0 22 22" fill="none" xmlns="http://www.w3.org/2000/svg">
<path d="M6 7.12969C6.31417 7.12969 6.58104 7.02 6.80062 6.80062C7.02 6.58104 7.12969 6.31417 7.12969 6C7.12969 5.68583 7.02 5.41896 6.80062 5.19938C6.58104 4.98 6.31417 4.87031 6 4.87031C5.68583 4.87031 5.41896 4.98 5.19938 5.19938C4.98 5.41896 4.87031 5.68583 4.87031 6C4.87031 6.31417 4.98 6.58104 5.19938 6.80062C5.41896 7.02 5.68583 7.12969 6 7.12969ZM6 12.1297C6.31417 12.1297 6.58104 12.02 6.80062 11.8006C7.02 11.581 7.12969 11.3142 7.12969 11C7.12969 10.6858 7.02 10.419 6.80062 10.1994C6.58104 9.98 6.31417 9.87031 6 9.87031C5.68583 9.87031 5.41896 9.98 5.19938 10.1994C4.98 10.419 4.87031 10.6858 4.87031 11C4.87031 11.3142 4.98 11.581 5.19938 11.8006C5.41896 12.02 5.68583 12.1297 6 12.1297ZM6 17.1297C6.31417 17.1297 6.58104 17.02 6.80062 16.8006C7.02 16.581 7.12969 16.3142 7.12969 16C7.12969 15.6858 7.02 15.419 6.80062 15.1994C6.58104 14.98 6.31417 14.8703 6 14.8703C5.68583 14.8703 5.41896 14.98 5.19938 15.1994C4.98 15.419 4.87031 15.6858 4.87031 16C4.87031 16.3142 4.98 16.581 5.19938 16.8006C5.41896 17.02 5.68583 17.1297 6 17.1297ZM2.63469 21.625C2.00323 21.625 1.46875 21.4062 1.03125 20.9688C0.59375 20.5312 0.375 19.9968 0.375 19.3653V2.63469C0.375 2.00323 0.59375 1.46875 1.03125 1.03125C1.46875 0.59375 2.00323 0.375 2.63469 0.375H15.7356L21.625 6.26438V19.3653C21.625 19.9968 21.4062 20.5312 20.9688 20.9688C20.5312 21.4062 19.9968 21.625 19.3653 21.625H2.63469ZM2.63469 19.75H19.3653C19.4776 19.75 19.5698 19.714 19.6419 19.6419C19.714 19.5698 19.75 19.4776 19.75 19.3653V7.25H14.75V2.25H2.63469C2.5224 2.25 2.43021 2.28604 2.35813 2.35813C2.28604 2.43021 2.25 2.5224 2.25 2.63469V19.3653C2.25 19.4776 2.28604 19.5698 2.35813 19.6419C2.43021 19.714 2.5224 19.75 2.63469 19.75Z" fill="#1C262C"/>
</svg>
