<svg width="36" height="32" viewBox="0 0 36 32" fill="none" xmlns="http://www.w3.org/2000/svg">
<path d="M17.6475 29.2855C17.8119 29.2855 17.9792 29.247 18.1492 29.17C18.3189 29.0931 18.4529 29.0055 18.5512 28.9071L31.8812 15.5771C32.2574 15.201 32.5405 14.7992 32.7308 14.3717C32.9208 13.9445 33.0158 13.4959 33.0158 13.0259C33.0158 12.5387 32.9208 12.0696 32.7308 11.6188C32.5405 11.1677 32.2574 10.7627 31.8812 10.4038L25.2146 3.73713C24.8557 3.36102 24.4668 3.08588 24.0479 2.91171C23.6293 2.73782 23.1764 2.65088 22.6892 2.65088C22.2192 2.65088 21.7678 2.73782 21.335 2.91171C20.9022 3.08588 20.5032 3.36102 20.1379 3.73713L19.1825 4.69255L22.2658 7.80129C22.6397 8.15824 22.916 8.56532 23.0946 9.02254C23.2729 9.47977 23.3621 9.95407 23.3621 10.4455C23.3621 11.4627 23.0224 12.311 22.3429 12.9905C21.6635 13.6699 20.8151 14.0096 19.7979 14.0096C19.3065 14.0096 18.8305 13.9284 18.37 13.7659C17.9097 13.6037 17.5011 13.3441 17.1442 12.9871L13.9871 9.85588L6.74374 17.0992C6.61763 17.2253 6.52304 17.3664 6.45999 17.5225C6.39693 17.6784 6.36541 17.8387 6.36541 18.0034C6.36541 18.3109 6.47013 18.5737 6.67957 18.7917C6.88902 19.0098 7.14749 19.1188 7.45499 19.1188C7.61971 19.1188 7.78693 19.0803 7.95666 19.0034C8.12666 18.9264 8.26082 18.8388 8.35916 18.7405L13.8333 13.2663L15.5896 15.0225L10.1408 20.4967C10.015 20.6228 9.92054 20.7639 9.85749 20.92C9.79443 21.0759 9.76291 21.2362 9.76291 21.4009C9.76291 21.6978 9.87027 21.9537 10.085 22.1684C10.2997 22.3831 10.5555 22.4905 10.8525 22.4905C11.0172 22.4905 11.1844 22.452 11.3542 22.375C11.5242 22.2981 11.6582 22.2105 11.7562 22.1121L17.4229 16.4713L19.1796 18.2275L13.5383 23.8942C13.423 23.9925 13.3312 24.1266 13.2629 24.2963C13.1946 24.4663 13.1604 24.6335 13.1604 24.798C13.1604 25.0952 13.2678 25.3512 13.4825 25.5659C13.6972 25.7806 13.953 25.888 14.25 25.888C14.4144 25.888 14.5747 25.8564 14.7308 25.7934C14.8867 25.7303 15.0276 25.6357 15.1537 25.5096L20.8204 19.8688L22.5771 21.625L16.9104 27.2917C16.7843 27.4178 16.6897 27.5642 16.6267 27.7309C16.5636 27.8975 16.5321 28.0578 16.5321 28.2117C16.5321 28.5192 16.6464 28.775 16.875 28.9792C17.1036 29.1834 17.3611 29.2855 17.6475 29.2855ZM17.6217 31.785C16.6794 31.785 15.8579 31.4582 15.1571 30.8046C14.4562 30.1507 14.0899 29.3366 14.0579 28.3621C13.1135 28.298 12.3244 27.9625 11.6908 27.3559C11.0572 26.7489 10.7137 25.9519 10.6604 24.9646C9.67318 24.9007 8.87513 24.5557 8.26624 23.9296C7.65707 23.3035 7.3311 22.516 7.28832 21.5671C6.29693 21.5032 5.4786 21.1438 4.83332 20.4888C4.18804 19.8338 3.86541 19.0053 3.86541 18.0034C3.86541 17.512 3.95888 17.0306 4.14582 16.5592C4.33277 16.0881 4.60471 15.6742 4.96166 15.3175L13.9871 6.31755L18.8687 11.1988C18.9668 11.3141 19.0954 11.406 19.2546 11.4746C19.414 11.543 19.5867 11.5771 19.7725 11.5771C20.0758 11.5771 20.3375 11.4767 20.5575 11.2759C20.7778 11.075 20.8879 10.8121 20.8879 10.4871C20.8879 10.3013 20.8537 10.1288 20.7854 9.96963C20.7168 9.81046 20.6248 9.68171 20.5096 9.58338L14.6633 3.73713C14.3044 3.36102 13.9129 3.08588 13.4887 2.91171C13.0646 2.73782 12.6089 2.65088 12.1217 2.65088C11.6517 2.65088 11.2057 2.73782 10.7837 2.91171C10.3615 3.08588 9.96249 3.36102 9.58666 3.73713L4.11207 9.23713C3.80874 9.54046 3.56041 9.89893 3.36707 10.3125C3.17374 10.7259 3.05999 11.1474 3.02582 11.5771C2.99138 11.9318 3.00735 12.2828 3.07374 12.63C3.13985 12.9773 3.25624 13.3037 3.42291 13.6092L1.58332 15.4488C1.20721 14.906 0.924156 14.2981 0.734156 13.625C0.543878 12.952 0.465822 12.2693 0.499989 11.5771C0.534156 10.8099 0.707211 10.0689 1.01916 9.35421C1.3311 8.63949 1.76804 8.00116 2.32999 7.43921L7.78832 1.98088C8.41249 1.37393 9.09152 0.917267 9.82541 0.610878C10.5593 0.304211 11.3301 0.150879 12.1379 0.150879C12.9454 0.150879 13.7135 0.304211 14.4421 0.610878C15.171 0.917267 15.8387 1.37393 16.4454 1.98088L17.4008 2.93588L18.3558 1.98088C18.9797 1.37393 19.656 0.917267 20.3846 0.610878C21.1132 0.304211 21.8814 0.150879 22.6892 0.150879C23.4969 0.150879 24.2678 0.304211 25.0017 0.610878C25.7355 0.917267 26.406 1.37393 27.0129 1.98088L33.6379 8.60588C34.2446 9.21282 34.7093 9.90352 35.0321 10.678C35.3546 11.4524 35.5158 12.2435 35.5158 13.0513C35.5158 13.8591 35.3546 14.6273 35.0321 15.3559C34.7093 16.0845 34.2446 16.7521 33.6379 17.3588L20.3075 30.6634C19.94 31.0309 19.5261 31.3098 19.0658 31.5C18.6053 31.69 18.1239 31.785 17.6217 31.785Z" fill="#1C262C"/>
</svg>
