<svg width="34" height="30" viewBox="0 0 34 30" fill="none" xmlns="http://www.w3.org/2000/svg">
<path d="M0.942383 29.295V0.128296H16.7753V6.79496H33.0574V29.295H0.942383ZM3.44197 26.795H7.60905V22.6283H3.44197V26.795ZM3.44197 20.1283H7.60905V15.9616H3.44197V20.1283ZM3.44197 13.4616H7.60905V9.29496H3.44197V13.4616ZM3.44197 6.79496H7.60905V2.6283H3.44197V6.79496ZM10.1086 26.795H14.2757V22.6283H10.1086V26.795ZM10.1086 20.1283H14.2757V15.9616H10.1086V20.1283ZM10.1086 13.4616H14.2757V9.29496H10.1086V13.4616ZM10.1086 6.79496H14.2757V2.6283H10.1086V6.79496ZM16.7753 26.795H30.5578V9.29496H16.7753V13.4616H20.4295V15.9616H16.7753V20.1283H20.4295V22.6283H16.7753V26.795ZM24.0832 15.9616V13.4616H26.5832V15.9616H24.0832ZM24.0832 22.6283V20.1283H26.5832V22.6283H24.0832Z" fill="#1C262C"/>
</svg>
