<svg width="20" height="24" viewBox="0 0 20 24" fill="none" xmlns="http://www.w3.org/2000/svg">
<path d="M10.0021 11.8316C10.624 11.8316 11.1557 11.6101 11.5971 11.1672C12.0388 10.7243 12.2596 10.1919 12.2596 9.57C12.2596 8.94812 12.0382 8.41635 11.5953 7.97469C11.1523 7.53323 10.6198 7.3125 9.99775 7.3125C9.37588 7.3125 8.84421 7.53396 8.40275 7.97688C7.96109 8.41979 7.74025 8.95229 7.74025 9.57438C7.74025 10.1962 7.96171 10.7279 8.40463 11.1694C8.84755 11.6108 9.38004 11.8316 10.0021 11.8316ZM9.99994 21.3919C12.4454 19.2027 14.3167 17.1029 15.614 15.0925C16.9113 13.0821 17.5599 11.3212 17.5599 9.81C17.5599 7.53125 16.836 5.65792 15.3881 4.19C13.9401 2.72208 12.1441 1.98812 9.99994 1.98812C7.85577 1.98812 6.05973 2.72208 4.61182 4.19C3.1639 5.65792 2.43994 7.53125 2.43994 9.81C2.43994 11.3212 3.08859 13.0821 4.38588 15.0925C5.68317 17.1029 7.55452 19.2027 9.99994 21.3919ZM9.99994 23.8869C6.85411 21.161 4.49515 18.6243 2.92307 16.2766C1.35098 13.9286 0.564941 11.7731 0.564941 9.81C0.564941 6.92542 1.49796 4.5901 3.364 2.80406C5.23025 1.01802 7.44223 0.125 9.99994 0.125C12.5576 0.125 14.7696 1.01802 16.6359 2.80406C18.5019 4.5901 19.4349 6.92542 19.4349 9.81C19.4349 11.7731 18.6489 13.9286 17.0768 16.2766C15.5047 18.6243 13.1458 21.161 9.99994 23.8869Z" fill="#1C262C"/>
</svg>
