<svg width="26" height="26" viewBox="0 0 26 26" fill="none" xmlns="http://www.w3.org/2000/svg">
<path d="M13 12.4871C11.3958 12.4871 10.0226 11.916 8.88042 10.7738C7.73792 9.63127 7.16667 8.25793 7.16667 6.65377C7.16667 5.0496 7.73792 3.67641 8.88042 2.53418C10.0226 1.39168 11.3958 0.820435 13 0.820435C14.6042 0.820435 15.9774 1.39168 17.1196 2.53418C18.2621 3.67641 18.8333 5.0496 18.8333 6.65377C18.8333 8.25793 18.2621 9.63127 17.1196 10.7738C15.9774 11.916 14.6042 12.4871 13 12.4871ZM0.5 25.1796V21.4742C0.5 20.6581 0.721667 19.9022 1.165 19.2067C1.60833 18.5111 2.20083 17.9764 2.9425 17.6025C4.58972 16.795 6.25153 16.1893 7.92792 15.7854C9.60431 15.3815 11.295 15.1796 13 15.1796C14.705 15.1796 16.3957 15.3815 18.0721 15.7854C19.7485 16.1893 21.4103 16.795 23.0575 17.6025C23.7992 17.9764 24.3917 18.5111 24.835 19.2067C25.2783 19.9022 25.5 20.6581 25.5 21.4742V25.1796H0.5ZM3 22.6796H23V21.4742C23 21.1367 22.9022 20.8242 22.7067 20.5367C22.5111 20.2495 22.2457 20.015 21.9104 19.8334C20.4743 19.1261 19.0101 18.5903 17.5179 18.2259C16.0254 17.8617 14.5194 17.6796 13 17.6796C11.4806 17.6796 9.97458 17.8617 8.48208 18.2259C6.98986 18.5903 5.52569 19.1261 4.08958 19.8334C3.75431 20.015 3.48889 20.2495 3.29333 20.5367C3.09778 20.8242 3 21.1367 3 21.4742V22.6796ZM13 9.9871C13.9167 9.9871 14.7014 9.66071 15.3542 9.00793C16.0069 8.35516 16.3333 7.57043 16.3333 6.65377C16.3333 5.7371 16.0069 4.95238 15.3542 4.2996C14.7014 3.64682 13.9167 3.32043 13 3.32043C12.0833 3.32043 11.2986 3.64682 10.6458 4.2996C9.99306 4.95238 9.66667 5.7371 9.66667 6.65377C9.66667 7.57043 9.99306 8.35516 10.6458 9.00793C11.2986 9.66071 12.0833 9.9871 13 9.9871Z" fill="#1C262C"/>
</svg>
