<svg xmlns="http://www.w3.org/2000/svg" width="25" height="25" viewBox="0 0 25 25" fill="none">
    <path d="M18.1889 19.9922H7.73218V8.53383L14.2626 2.08352L14.7234 2.54424C14.8182 2.63907 14.898 2.7606 14.9628 2.90883C15.0275 3.05707 15.0599 3.1933 15.0599 3.3175V3.48174L13.9942 8.53383H21.2338C21.6692 8.53383 22.0584 8.70544 22.4017 9.04867C22.7449 9.39188 22.9165 9.78117 22.9165 10.2165V11.4986C22.9165 11.5934 22.9058 11.6969 22.8844 11.8091C22.8631 11.9213 22.835 12.0248 22.8003 12.1196L19.9557 18.8624C19.8128 19.1829 19.5725 19.4513 19.2346 19.6677C18.8967 19.884 18.5482 19.9922 18.1889 19.9922ZM8.77385 18.9505H18.1889C18.3358 18.9505 18.4861 18.9105 18.6396 18.8303C18.7932 18.7502 18.9101 18.6166 18.9902 18.4297L21.8748 11.6589V10.2165C21.8748 10.0296 21.8147 9.876 21.6945 9.75581C21.5743 9.63562 21.4208 9.57552 21.2338 9.57552H12.7001L13.9061 3.88641L8.77385 8.97854V18.9505ZM7.73218 8.53383V9.57552H4.16648V18.9505H7.73218V19.9922H3.12481V8.53383H7.73218Z" fill="currentColor" />
</svg>