<svg width="159" height="30" viewBox="0 0 159 30" fill="none" xmlns="http://www.w3.org/2000/svg">
                                        <g clip-path="url(#clip0_2128_419)">
                                            <path d="M17.613 8.36047C17.613 8.29989 17.613 8.24309 17.6016 8.18629C17.5863 7.92881 17.5597 7.67512 17.5216 7.42522C17.4797 7.13366 17.4187 6.84968 17.3464 6.56948C17.3464 6.56948 17.3451 6.56696 17.3426 6.56191C17.3045 6.42181 17.2664 6.28171 17.2207 6.14161C17.1788 6.0053 17.1293 5.86899 17.0797 5.73268C17.0302 5.59636 16.9769 5.46384 16.9198 5.33131C16.6417 4.67247 16.2798 4.05528 15.8456 3.4911C15.758 3.37751 15.6704 3.2677 15.579 3.15789C15.3999 2.93828 15.2057 2.72624 15 2.52556C13.4116 0.965543 11.2252 0 8.81031 0C3.94236 0 0 3.92276 0 8.75805C0 11.2003 1.00559 13.4078 2.62443 14.9981C2.62443 14.9981 2.62443 15.0019 2.63205 15.0019C4.22423 16.5619 6.403 17.5199 8.81031 17.5199C11.2176 17.5199 13.4002 16.5619 14.9886 15.0019C14.9924 15.0019 14.9924 14.9981 14.9924 14.9981H15C15.5409 14.4642 16.0094 13.866 16.3979 13.2185C16.4551 13.1238 16.5084 13.0292 16.5617 12.9345C16.6188 12.8398 16.6684 12.7452 16.7103 12.6505C16.756 12.5558 16.8017 12.4612 16.8474 12.3627C16.8893 12.2643 16.935 12.1696 16.9731 12.0674C17.015 11.969 17.0531 11.8705 17.0912 11.7683C17.1407 11.6357 17.1864 11.4994 17.2283 11.3631C17.2511 11.295 17.274 11.223 17.2892 11.1549C17.3121 11.0867 17.3273 11.0186 17.3464 10.9504C17.3845 10.8103 17.4187 10.6664 17.4454 10.5225C17.4721 10.3824 17.4987 10.2423 17.5216 10.0984C17.5597 9.8599 17.5863 9.61757 17.6016 9.37145C17.6092 9.29193 17.613 9.21242 17.6168 9.1329C17.6168 9.01174 17.6244 8.89057 17.6244 8.7694C17.6244 8.63309 17.6244 8.49678 17.613 8.36047ZM8.81031 6.38394C10.1359 6.38394 11.2138 7.45172 11.2138 8.7694C11.2138 10.0871 10.1359 11.1587 8.81031 11.1587C7.48476 11.1587 6.40681 10.0909 6.40681 8.7694C6.40681 7.44794 7.48476 6.38394 8.81031 6.38394Z" fill="#F4CD00" />
                                            <path d="M21.1858 0C18.7747 0 16.5921 0.961757 14.9999 2.52556C14.8971 2.62779 14.798 2.73003 14.7028 2.83605C14.5047 3.0443 14.3219 3.26013 14.1543 3.48731C13.5487 4.27868 13.0802 5.17228 12.7792 6.14161C12.7335 6.27792 12.6954 6.41802 12.6574 6.56191C12.6574 6.56191 12.6574 6.56191 12.6535 6.56948C12.5964 6.78909 12.5469 7.01249 12.5126 7.23968C12.505 7.27376 12.4974 7.31162 12.4936 7.3457C12.4821 7.42143 12.4669 7.49716 12.4593 7.57289C12.4479 7.64483 12.4402 7.71677 12.4326 7.78493C12.4212 7.85308 12.4174 7.92124 12.4098 7.99318C12.4098 8.04241 12.4022 8.09163 12.3983 8.14464C12.3907 8.22037 12.3869 8.29231 12.3869 8.36804C12.3793 8.50057 12.3755 8.63309 12.3755 8.7694C12.3755 9.06853 12.3907 9.36388 12.4212 9.65543C12.4517 9.94699 12.4974 10.2385 12.5545 10.5225C12.6116 10.8103 12.684 11.0905 12.7716 11.3631C12.8135 11.4994 12.8592 11.6357 12.9088 11.7683C13.023 12.075 13.1525 12.3741 13.2973 12.6657C13.3696 12.8095 13.4458 12.9534 13.5258 13.0935C13.9296 13.794 14.4248 14.4339 14.9999 14.9943V15.0019H15.0075C16.5997 16.5619 18.7785 17.5199 21.1858 17.5199C23.5931 17.5199 25.7719 16.5619 27.3641 15.0019L27.3717 14.9981C28.9943 13.4078 29.9999 11.2003 29.9999 8.75805C29.9999 3.92276 26.0537 0 21.1858 0ZM21.1896 6.38394C22.5152 6.38394 23.5931 7.45172 23.5931 8.7694C23.5931 10.0871 22.5152 11.1587 21.1896 11.1587C19.8641 11.1587 18.7861 10.0909 18.7861 8.7694C18.7861 7.44794 19.8641 6.38394 21.1896 6.38394Z" fill="#00D061" />
                                            <path d="M17.613 20.8406C17.613 20.78 17.613 20.7232 17.6016 20.6664C17.594 20.5415 17.5825 20.4203 17.5711 20.2991C17.5597 20.1666 17.5406 20.0341 17.5216 19.9053C17.4797 19.6138 17.4187 19.3298 17.3464 19.0496C17.3464 19.0496 17.3451 19.0471 17.3426 19.042C17.3045 18.9019 17.2664 18.7618 17.2207 18.6217C17.1788 18.493 17.1369 18.368 17.0912 18.2431C17.0531 18.1409 17.015 18.0424 16.9693 17.9402C16.9464 17.8758 16.9159 17.8076 16.8855 17.7395C16.8283 17.5994 16.7636 17.4631 16.6912 17.3268C16.6455 17.2283 16.596 17.1337 16.5427 17.0428C16.4741 16.9178 16.4017 16.7929 16.3255 16.6717C15.9865 16.1075 15.579 15.5888 15.1143 15.1193C15.1067 15.1117 15.099 15.1041 15.0914 15.0928C15.0609 15.0625 15.0343 15.0322 15.0038 15.0057V15.0019V14.9981C14.9848 14.9792 14.9657 14.9602 14.9467 14.9413C13.3659 13.4154 11.2024 12.4763 8.82174 12.4763C6.44109 12.4763 4.22803 13.4381 2.63586 14.9981C1.00559 16.5884 0 18.7959 0 21.2382C0 26.0772 3.94236 30 8.81031 30C11.2214 30 13.404 29.0382 14.9924 27.4782H15C15.5409 26.9481 16.0094 26.3499 16.3979 25.7024C16.4551 25.6077 16.5084 25.5131 16.5617 25.4184C16.6188 25.3237 16.6684 25.2291 16.7103 25.1344C16.756 25.0398 16.8017 24.9451 16.8474 24.8466C16.8893 24.7482 16.935 24.6535 16.9731 24.5513C17.015 24.4529 17.0531 24.3544 17.0912 24.2522C17.1407 24.1196 17.1864 23.9833 17.2283 23.847C17.2626 23.741 17.293 23.6388 17.3197 23.5365C17.3273 23.5025 17.3349 23.4684 17.3464 23.4343C17.3845 23.2942 17.4187 23.1503 17.4454 23.0064C17.4721 22.8663 17.4987 22.7262 17.5216 22.5824C17.5901 22.1507 17.6244 21.7039 17.6244 21.2533C17.6244 21.117 17.6244 20.9807 17.613 20.8444V20.8406ZM8.81031 23.6388C7.48476 23.6388 6.40681 22.571 6.40681 21.2495C6.40681 19.9281 7.48476 18.8641 8.81031 18.8641C10.1359 18.8641 11.2138 19.9318 11.2138 21.2495C11.2138 22.5672 10.1359 23.6388 8.81031 23.6388Z" fill="#FF784E" />
                                            <path d="M27.3719 14.9981C25.7797 13.4381 23.5971 12.4763 21.186 12.4763C18.7749 12.4763 16.6609 13.4078 15.0763 14.9262C15.0496 14.9489 15.023 14.9754 15.0001 14.9981V15.0019C15.0001 15.0057 15.0001 15.0057 15.0001 15.0057C14.9734 15.0322 14.9468 15.0587 14.9201 15.089C13.846 16.1681 13.0575 17.5275 12.6652 19.042C12.6652 19.042 12.6652 19.0458 12.6614 19.0496C12.5966 19.3033 12.5395 19.5608 12.5014 19.8258C12.4214 20.2878 12.3833 20.7649 12.3833 21.2495C12.3833 21.5487 12.3985 21.844 12.429 22.1356C12.4595 22.4271 12.5052 22.7187 12.5623 23.0026C12.6195 23.2904 12.6918 23.5706 12.7794 23.8432C12.8213 23.9796 12.867 24.1159 12.9166 24.2484C13.3698 25.479 14.0898 26.5771 15.0077 27.4744C15.0077 27.4744 15.0077 27.4744 15.0077 27.482C16.5999 29.0382 18.7787 30 21.1898 30C26.0578 30 30.0039 26.0772 30.0039 21.2382C30.0039 18.7959 28.9983 16.5884 27.3757 14.9981H27.3719ZM21.1898 23.6388C19.8643 23.6388 18.7863 22.571 18.7863 21.2495C18.7863 19.9281 19.8643 18.8641 21.1898 18.8641C22.5153 18.8641 23.5933 19.9318 23.5933 21.2495C23.5933 22.5672 22.5153 23.6388 21.1898 23.6388Z" fill="#4547C9" />
                                            <path d="M8.81039 12.4877C11.2215 12.4877 13.4079 13.4495 14.9963 15.0095C13.4079 16.5695 11.2215 17.5312 8.81039 17.5312C6.39927 17.5312 4.21669 16.5695 2.62451 15.0095C4.21669 13.4495 6.39927 12.4877 8.81039 12.4877Z" fill="#F2BD65" />
                                            <path d="M17.6243 8.7694C17.6243 11.2079 16.6226 13.4154 14.9999 15.0057C13.3811 13.4192 12.3755 11.2117 12.3755 8.7694C12.3755 6.32715 13.3811 4.11965 14.9999 2.53313C16.6226 4.12344 17.6243 6.33093 17.6243 8.7694Z" fill="#F2BD65" />
                                            <path d="M14.9999 15.0057C13.3811 13.4192 12.3755 11.2117 12.3755 8.7694C12.3755 6.32715 13.3811 4.11965 14.9999 2.53313C16.6226 4.12344 17.6243 6.33093 17.6243 8.7694C17.6243 11.2079 16.6226 13.4154 14.9999 15.0057Z" fill="#FF845D" />
                                            <path d="M27.3718 15.0095C25.7796 16.5695 23.597 17.5312 21.1859 17.5312C18.7748 17.5312 16.5922 16.5695 15 15.0095C16.5922 13.4495 18.7748 12.4877 21.1859 12.4877C23.597 12.4877 25.7796 13.4495 27.3718 15.0095Z" fill="#A6A6ED" />
                                            <path d="M14.9963 15.0095C13.4079 16.5695 11.2215 17.5312 8.81039 17.5312C6.39927 17.5312 4.21669 16.5695 2.62451 15.0095C4.21669 13.4495 6.39927 12.4877 8.81039 12.4877C11.2215 12.4877 13.4079 13.4495 14.9963 15.0095Z" fill="white" />
                                            <path d="M17.6243 21.2495C17.6243 23.688 16.6226 25.8955 14.9999 27.4858C13.3811 25.8993 12.3755 23.6918 12.3755 21.2495C12.3755 18.8073 13.3811 16.5998 14.9999 15.0133C16.6226 16.6036 17.6243 18.8111 17.6243 21.2495Z" fill="#F7595F" />
                                            <path d="M17.6243 21.2495C17.6243 23.688 16.6226 25.8955 14.9999 27.4858C13.3811 25.8993 12.3755 23.6918 12.3755 21.2495C12.3755 18.8073 13.3811 16.5998 14.9999 15.0133C16.6226 16.6036 17.6243 18.8111 17.6243 21.2495Z" fill="#00D061" />
                                            <path d="M27.3718 15.0095C25.7796 16.5695 23.597 17.5312 21.1859 17.5312C18.7748 17.5312 16.5922 16.5695 15 15.0095C16.5922 13.4495 18.7748 12.4877 21.1859 12.4877C23.597 12.4877 25.7796 13.4495 27.3718 15.0095Z" fill="#F4CD00" />
                                        </g>
                                        <path d="M34.8887 5.11111H38.7062V24.5481H34.8887V5.11111Z" fill="#4547C9" />
                                        <path d="M47.6795 24.8976C43.5394 24.8976 40.4208 22.021 40.4208 17.7734C40.4208 13.929 43.2168 10.7567 47.33 10.7567C51.5507 10.7567 53.9971 13.8752 53.9971 17.5045V18.6336H44.1039C44.3728 20.408 45.7438 21.5909 47.6526 21.5909C49.1043 21.5909 50.3141 20.8919 50.9324 19.6552L53.8627 21.1338C52.7067 23.5265 50.5023 24.8976 47.6795 24.8976ZM44.2652 16.5098H50.2065C50.0452 15.1388 48.9161 14.0903 47.3031 14.0903C45.6363 14.0903 44.5341 15.1656 44.2652 16.5098Z" fill="#4547C9" />
                                        <path d="M59.2659 24.5481H55.4484V16.9131C55.4484 13.4988 57.3841 10.8911 61.336 10.8911C62.1963 10.8911 63.1372 11.0524 63.8093 11.3481V15.0581C63.1641 14.6817 62.3845 14.4935 61.6855 14.4935C60.18 14.4935 59.2659 15.4614 59.2659 17.0475V24.5481Z" fill="#4547C9" />
                                        <path d="M71.0429 14.5742C68.8922 14.5742 67.9244 16.3216 67.9244 18.3648V24.5481H64.1069V17.9078C64.1069 14.0365 66.392 10.8642 71.0429 10.8642C75.6938 10.8642 78.0327 14.0096 78.0327 17.9078V24.5481H74.2152V18.3648C74.2152 16.3216 73.2205 14.5742 71.0429 14.5742Z" fill="#4547C9" />
                                        <path d="M86.4666 24.8976C82.3265 24.8976 79.208 22.021 79.208 17.7734C79.208 13.929 82.0039 10.7567 86.1171 10.7567C90.3379 10.7567 92.7843 13.8752 92.7843 17.5045V18.6336H82.8911C83.1599 20.408 84.531 21.5909 86.4398 21.5909C87.8915 21.5909 89.1012 20.8919 89.7196 19.6552L92.6499 21.1338C91.4939 23.5265 89.2894 24.8976 86.4666 24.8976ZM83.0524 16.5098H88.9937C88.8324 15.1388 87.7033 14.0903 86.0903 14.0903C84.4235 14.0903 83.3212 15.1656 83.0524 16.5098Z" fill="#4547C9" />
                                        <path d="M101.172 14.5742C99.0209 14.5742 98.0531 16.3216 98.0531 18.3648V24.5481H94.2356V17.9078C94.2356 14.0365 96.5207 10.8642 101.172 10.8642C105.823 10.8642 108.161 14.0096 108.161 17.9078V24.5481H104.344V18.3648C104.344 16.3216 103.349 14.5742 101.172 14.5742Z" fill="#4547C9" />
                                        <path d="M117.655 24.5481H113.837V5.11111H117.655V12.0471C118.649 11.3213 119.967 10.8642 121.419 10.8642C125.478 10.8642 127.602 13.4451 127.602 17.6389V24.5481L123.784 24.5212V18.0153C123.784 16.1335 122.763 14.4667 120.827 14.4667C118.918 14.4667 117.655 15.9722 117.655 18.0691V24.5481Z" fill="#4547C9" />
                                        <path d="M136.053 21.2145C138.015 21.2145 139.01 19.467 139.01 17.397V11.2406H142.827V17.854C142.827 21.7522 140.515 24.8976 136.053 24.8976C131.617 24.8976 129.305 21.7522 129.305 17.854V11.2406H133.122V17.4239C133.122 19.467 134.09 21.2145 136.053 21.2145Z" fill="#4547C9" />
                                        <path d="M151.736 24.9244C147.596 24.9244 144.531 21.9403 144.531 17.9078V5.11111H148.348V12.1009C149.343 11.3481 150.607 10.8642 151.951 10.8642C156.091 10.8642 158.941 13.7677 158.941 17.9078C158.941 21.7522 155.849 24.9244 151.736 24.9244ZM151.736 21.322C153.698 21.322 155.123 19.7896 155.123 17.9078C155.123 16.0259 153.698 14.4667 151.736 14.4667C149.773 14.4667 148.348 16.0259 148.348 17.9078C148.348 19.7896 149.773 21.322 151.736 21.322Z" fill="#4547C9" />
                                        <defs>
                                            <clipPath id="clip0_2128_419">
                                                <rect width="30" height="30" fill="white" />
                                            </clipPath>
                                        </defs>
                                    </svg>